<svg xmlns="http://www.w3.org/2000/svg" width="14.094" height="14.094" viewBox="0 0 14.094 14.094">
  <metadata><?xpacket begin="﻿" id="W5M0MpCehiHzreSzNTczkc9d"?>
<x:xmpmeta xmlns:x="adobe:ns:meta/" x:xmptk="Adobe XMP Core 5.6-c138 79.159824, 2016/09/14-01:09:01        ">
   <rdf:RDF xmlns:rdf="http://www.w3.org/1999/02/22-rdf-syntax-ns#">
      <rdf:Description rdf:about=""/>
   </rdf:RDF>
</x:xmpmeta>
                                                                                                    
                                                                                                    
                                                                                                    
                                                                                                    
                                                                                                    
                                                                                                    
                                                                                                    
                                                                                                    
                                                                                                    
                                                                                                    
                                                                                                    
                                                                                                    
                                                                                                    
                                                                                                    
                                                                                                    
                                                                                                    
                                                                                                    
                                                                                                    
                                                                                                    
                                                                                                    
                           
<?xpacket end="w"?></metadata>
<defs>
    <style>
      .cls-1 {
        fill: #ffe137;
        fill-rule: evenodd;
      }
    </style>
  </defs>
  <path id="Фигура_1" data-name="Фигура 1" class="cls-1" d="M72.141,2.691a0.218,0.218,0,0,0-.225.2,16.282,16.282,0,0,1-1.543,4.038A3.214,3.214,0,0,1,69.2,8.012,19.718,19.718,0,0,1,65.52,9.437a1.058,1.058,0,0,0-.487.321,1.4,1.4,0,0,0,.475.3A17.339,17.339,0,0,1,69.424,11.6a4.028,4.028,0,0,1,1.424,1.9h0.011c0.439,1.009.736,2.138,1.068,3.088,0.091,0.309.451,0.131,0.463-.119a30,30,0,0,1,.985-2.969l-0.026-.07L73.43,13.4a9.951,9.951,0,0,1,.676-1.14,4.236,4.236,0,0,1,1.305-1.057c0.178-.088.368-0.178,0.558-0.261A25.386,25.386,0,0,1,78.7,10.02c0.178-.08.487-0.131,0.427-0.392a1.489,1.489,0,0,0-.569-0.273A23.915,23.915,0,0,1,75,8.049a3.112,3.112,0,0,1-1.151-1.1A14.248,14.248,0,0,1,72.3,2.906a0.248,0.248,0,0,0-.225-0.214h0.064Z" transform="translate(-65.031 -2.688)"/>
</svg>
